<svg width="384" height="371" viewBox="0 0 384 371" fill="none" xmlns="http://www.w3.org/2000/svg">
<path d="M74.4424 191.178C88.883 194.998 103.268 199.018 117.596 203.239C114.976 210.629 112.644 218.146 110.115 225.571L108.111 231.389C105.089 232.171 102.099 233.233 99.1234 234.185C90.4274 220.177 82.8004 205.403 74.4424 191.178Z" fill="#fff"/>
<path d="M312.552 191.484L313.009 192.046C304.696 206.032 297.393 220.669 288.767 234.455C286.214 233.516 282.745 233.044 280.465 231.617C278.948 230.667 278.933 229.674 278.424 228.073C275.472 219.903 273.113 211.497 270.607 203.181C284.466 198.92 298.565 195.301 312.552 191.484Z" fill="#fff"/>
<path d="M66.9546 79.999C77.5966 88.416 89.7975 101.542 99.9305 111.164C100.733 119.413 102.26 127.694 103.36 135.917C116.061 126.283 127.97 115.619 140.865 106.22C153.37 105.477 166.165 105.997 178.699 105.987L248.15 105.939L284.477 135.753C286.049 127.68 287.215 119.506 288.443 111.375C298.814 100.712 310.008 90.632 320.84 80.422C324.208 93.158 326.566 106.947 328.407 119.994L309.77 157.27C313.541 160.298 317.167 163.532 320.84 166.678L324.922 170.368C322.722 174.147 320.496 177.867 318.068 181.505C293.136 160.902 268.859 139.451 243.308 119.606C210.635 119.989 177.925 119.679 145.248 119.714C128.599 132.367 112.436 145.895 96.4276 159.355C87.6926 166.7 79.1416 174.485 69.9406 181.237C67.5126 177.576 65.3325 173.773 63.4005 169.828C68.5215 165.767 73.4156 161.322 78.3866 157.072C72.0332 144.472 65.5772 131.925 59.0186 119.43C61.8696 106.342 64.3026 93.131 66.9546 79.999Z" fill="#fff"/>
<path fill-rule="evenodd" clip-rule="evenodd" d="M204.896 6.80481C200.728 4.37411 196.362 1.82795 192.102 0.279297L160.095 17.6653C158.523 18.52 156.908 19.3608 155.279 20.2084C150.095 22.9063 144.777 25.6739 140.302 29.1833C136.178 25.5103 131.977 23.1753 126.234 23.6113C125.698 23.6486 125.166 23.7126 124.637 23.8033C124.108 23.8939 123.584 24.0106 123.066 24.1533C122.549 24.296 122.039 24.464 121.538 24.6573C121.037 24.8506 120.547 25.0683 120.068 25.3103C119.589 25.5523 119.122 25.8176 118.669 26.1063C118.216 26.395 117.779 26.7053 117.357 27.0373C116.935 27.3693 116.531 27.7213 116.144 28.0933C115.757 28.466 115.389 28.8566 115.041 29.2653C111.835 33.0483 111.083 37.0763 111.034 41.8723C105.006 44.005 99.1888 46.6175 93.3671 49.2318C90.4211 50.5548 87.474 51.8783 84.498 53.1403C81.5782 54.3787 78.6077 55.5743 75.6274 56.7738C68.8418 59.5051 62.0056 62.2566 55.602 65.5793C54.9972 67.4058 54.1548 70.1004 53.1647 73.2677C49.4746 85.072 43.7318 103.442 40.582 107.915C34.297 109.825 28.422 111.82 25.057 118C22.889 121.982 23.222 126.201 24.574 130.38C25.383 132.883 26.588 134.881 28.205 136.943C21.6688 150.288 14.9456 163.512 8.21772 176.745C5.75379 181.591 3.28923 186.438 0.833008 191.293C4.42363 199.154 8.34558 206.895 12.2606 214.622C13.6533 217.371 15.0452 220.118 16.421 222.868C17.3576 224.74 18.276 226.646 19.1986 228.559C21.9848 234.339 24.8093 240.198 28.289 245.471C24.874 249.917 22.089 253.981 22.766 259.92C22.7947 260.188 22.8303 260.456 22.873 260.722C22.9157 260.988 22.9653 261.253 23.022 261.516C23.078 261.78 23.1413 262.042 23.212 262.302C23.282 262.563 23.3587 262.821 23.442 263.077C23.526 263.334 23.6163 263.588 23.713 263.839C23.8097 264.091 23.913 264.34 24.023 264.586C24.133 264.833 24.2493 265.076 24.372 265.316C24.4947 265.556 24.6234 265.793 24.758 266.026C24.8927 266.26 25.0337 266.49 25.181 266.716C25.3277 266.942 25.4803 267.164 25.639 267.382C25.7977 267.6 25.9617 267.814 26.131 268.023C26.301 268.233 26.476 268.438 26.656 268.638C26.8367 268.839 27.0223 269.035 27.213 269.225C27.4037 269.416 27.599 269.602 27.799 269.782C27.9997 269.963 28.2047 270.138 28.414 270.307C28.6233 270.477 28.837 270.642 29.055 270.8C32.174 273.079 35.537 273.874 39.255 274.52C42.955 282.226 46.5377 289.985 50.003 297.799C50.4995 298.896 50.979 300.038 51.4633 301.192C52.6198 303.946 53.8037 306.766 55.312 309.197C55.836 310.043 56.392 310.497 57.263 310.995C58.499 310.972 58.586 310.894 59.3715 310.194C59.4484 310.125 59.532 310.05 59.624 309.969C60.403 308.196 60.489 306.685 59.81 304.839C59.1934 303.164 58.3184 301.531 57.447 299.906C56.877 298.842 56.3085 297.782 55.815 296.714C52.194 288.877 48.576 281.007 45.389 272.982C50.72 270.097 52.69 267.373 55.277 261.957C56.5125 262.009 58.0156 262.112 59.6762 262.226C66.5427 262.696 76.1009 263.351 80.554 261.364C81.16 260.319 81.512 259.702 81.183 258.415C81.014 257.753 80.606 257.078 79.953 256.849C76.542 255.655 68.4032 255.966 61.9674 256.212C59.4392 256.309 57.1737 256.396 55.561 256.377C54.813 251.689 53.74 247.59 49.701 244.571C45.792 241.65 40.372 241.166 35.675 242.002C34.765 242.164 33.864 242.446 32.999 242.77C30.0061 236.001 26.5885 229.389 23.1807 222.797C22.1354 220.774 21.091 218.754 20.06 216.731C18.9513 214.556 17.8532 212.364 16.7531 210.167C13.663 203.999 10.5572 197.799 7.15601 191.842C11.6641 183.362 15.8749 174.719 20.0843 166.079C24.3179 157.39 28.5501 148.704 33.082 140.187C38.039 141.851 42.704 142.665 47.602 140.185C50.027 138.958 51.995 137.027 53.802 135.031C58.0424 138.408 62.5001 141.476 66.9598 144.545C69.0229 145.965 71.0864 147.385 73.129 148.836C74.0504 148.406 74.1217 148.185 74.3589 147.45C74.3982 147.328 74.442 147.192 74.495 147.039C74.956 145.707 75.004 144.401 74.275 143.15C72.6654 140.39 67.2685 137.005 62.5816 134.065C60.2278 132.589 58.0532 131.225 56.627 130.108C57.522 125.213 57.56 120.446 54.533 116.238C52.507 113.421 49.563 111.356 46.527 109.751C47.4974 106.978 48.4819 104.205 49.4672 101.429C53.1719 90.9942 56.8875 80.5287 59.901 69.9003C66.0381 67.0059 72.3208 64.4086 78.6006 61.8125C82.0018 60.4064 85.4021 59.0007 88.778 57.5483C91.4764 56.3871 94.1743 55.1643 96.8782 53.9387C102.068 51.5862 107.281 49.2236 112.561 47.2683C115.088 51.2333 117.376 53.3943 121.637 55.5333C121.25 56.6658 120.866 57.8001 120.481 58.9351C118.809 63.8672 117.134 68.8105 115.26 73.6613C114.564 75.4634 113.843 77.253 113.122 79.0415C111.305 83.5483 109.491 88.0479 108.093 92.7213L113.038 95.5463C114.735 90.7119 116.529 85.8949 118.323 81.0751C121.423 72.7497 124.526 64.4158 127.142 55.9683C132.104 55.4243 135.396 54.9243 139.073 51.2793C143.858 54.5008 148.523 57.9318 153.191 61.3647C161.068 67.1581 168.953 72.9568 177.43 77.7623C175.983 82.9463 175.542 87.5903 178.271 92.5223C178.558 93.0309 178.87 93.5243 179.206 94.0023C179.542 94.4803 179.901 94.9403 180.283 95.3823C180.665 95.8243 181.068 96.2466 181.491 96.6493C181.914 97.052 182.357 97.4326 182.818 97.7913C183.279 98.15 183.757 98.4846 184.252 98.7953C184.746 99.1066 185.254 99.393 185.777 99.6543C186.3 99.915 186.834 100.149 187.38 100.357C187.926 100.565 188.481 100.746 189.045 100.899C189.634 101.061 190.229 101.2 190.828 101.318C196.095 101.261 200.866 100 204.592 96.0443C207.82 92.6153 209.367 87.7433 209.124 83.0743C209.042 81.4965 208.728 79.9124 208.419 78.3563C208.38 78.1609 208.341 77.9658 208.303 77.7713C212.545 74.7465 216.909 71.794 221.285 68.8331C229.833 63.0496 238.427 57.2342 246.255 50.7863C249.941 54.3023 253.598 56.1063 258.764 56.0673C258.884 56.066 259.005 56.0592 259.125 56.0526C259.184 56.0493 259.244 56.046 259.303 56.0433C260.452 59.3552 261.582 62.692 262.715 66.0367C266.194 76.3052 269.698 86.6484 273.831 96.5773C275.643 95.3803 277.37 94.2193 279.004 92.7773C276.446 86.6626 274.161 80.433 271.878 74.2075C271.233 72.4489 270.588 70.6906 269.937 68.9353C269.399 67.4837 268.829 66.0292 268.257 64.5701C266.95 61.2368 265.634 57.8798 264.672 54.4793C268.389 52.1133 270.638 50.1003 272.979 46.3353C285.328 52.3346 297.873 57.8933 310.612 63.0113C312.099 63.6199 313.598 64.2635 315.105 64.9108C318.725 66.4654 322.395 68.0412 326.064 69.2033C330.436 82.9403 334.718 96.8143 338.48 110.73C334.25 113.784 331.035 116.991 330.186 122.396C329.663 125.729 330.103 128.971 330.785 132.243C329.854 132.729 327.791 133.657 325.364 134.749C320.086 137.123 313.088 140.272 312.266 141.325C312.077 141.567 311.964 141.857 311.851 142.147C311.794 142.292 311.738 142.436 311.672 142.575L311.673 142.623C311.708 144.002 311.732 144.904 312.475 146.141C314.49 146.939 315.97 146.416 317.895 145.565C321.927 143.782 325.91 141.369 329.793 139.016C331.093 138.228 332.382 137.447 333.657 136.699C338.819 140.501 343.361 142.544 349.943 141.57L350.636 141.462L351.461 141.347L351.954 141.272C355.629 147.568 358.83 154.255 362.011 160.898C363.308 163.608 364.602 166.311 365.923 168.977C366.891 170.932 367.94 172.923 369.003 174.941C371.92 180.479 374.942 186.217 376.697 191.942L352.407 243.757C347.091 243.096 341.997 243.076 337.566 246.586C334.247 249.216 332.345 252.96 330.962 256.872C329.964 256.874 328.48 256.841 326.708 256.802C319.264 256.637 306.743 256.361 303.861 258.031C303.741 258.219 303.633 258.379 303.538 258.52C303.023 259.284 302.884 259.49 303.084 260.664C305.837 263.195 316.893 262.838 324.703 262.585C327.345 262.5 329.616 262.427 331.067 262.481C333.436 267.61 335.586 271.137 340.227 274.577C339.97 275.118 339.604 275.878 339.154 276.813C335.154 285.12 324.531 307.182 324.835 310.837C325.634 311.994 325.813 312.152 327.082 312.754C328.938 312.323 329.69 311.609 330.675 309.986C332.218 307.444 333.335 304.538 334.438 301.668C335.006 300.192 335.569 298.726 336.185 297.324C336.715 296.118 337.251 294.91 337.788 293.699C340.383 287.849 343.003 281.943 345.096 275.929C350.543 275.933 355.026 274.918 359.046 270.895C362.09 267.848 363.924 263.615 363.824 259.287C363.698 253.916 360.868 250.029 357.161 246.451C362.785 235.145 368.302 223.787 373.712 212.377C374.588 210.55 375.495 208.72 376.405 206.883C378.812 202.023 381.242 197.12 383.172 192.125C377.997 178.029 369.192 161.487 361.415 146.876C359.796 143.834 358.222 140.876 356.734 138.041C360.255 133.541 362.88 129.553 362.207 123.517C361.753 119.442 359.787 115.738 356.573 113.171C352.92 110.254 348.882 109.422 344.33 109.103C342.024 102.281 339.993 95.3479 337.964 88.4167C335.67 80.582 333.376 72.7502 330.686 65.0853C321.858 61.1333 312.927 57.4189 303.997 53.7047C294.104 49.5901 284.211 45.4757 274.458 41.0383C274.446 35.7733 273.27 31.0903 269.385 27.2663C269.005 26.8943 268.607 26.5429 268.19 26.2123C267.774 25.8809 267.342 25.5719 266.894 25.2853C266.446 24.9986 265.985 24.736 265.51 24.4973C265.035 24.2579 264.548 24.044 264.051 23.8553C263.554 23.666 263.049 23.5026 262.535 23.3653C262.021 23.2286 261.502 23.1183 260.977 23.0343C260.452 22.951 259.923 22.8946 259.392 22.8653C258.861 22.836 258.33 22.834 257.799 22.8593C252.844 23.0823 248.855 25.6033 245.082 28.5843C235.545 23.9324 226.236 18.7479 216.949 13.5757C214.429 12.1723 211.911 10.7699 209.39 9.3793C207.929 8.57336 206.426 7.69686 204.896 6.80481ZM204.619 13.1479C200.392 10.6141 195.587 7.73413 192.081 6.74707C185.392 10.7757 178.416 14.4131 171.436 18.0525C161.974 22.986 152.505 27.9231 143.735 33.8431C143.649 38.4421 143.393 42.9781 142.982 47.5591C149.296 51.5031 155.432 55.7232 161.565 59.9413C162.474 60.5659 163.382 61.1905 164.29 61.8141C165.318 62.5193 166.362 63.2218 167.411 63.9281C171.801 66.8821 176.289 69.9027 180.097 73.4731C184.719 70.0211 188.29 68.7531 194.024 68.2641C198.374 69.0521 201.078 70.5651 204.587 73.1771C217.025 64.1831 229.6 55.3851 242.312 46.7831C241.859 42.4151 241.49 38.2781 242.264 33.9161C235.06 29.6148 227.625 25.6676 220.198 21.7242C216.574 19.8002 212.952 17.877 209.358 15.9141C207.958 15.1492 206.336 14.1771 204.619 13.1479Z" fill="#fff"/>
<path fill-rule="evenodd" clip-rule="evenodd" d="M193.278 149.809C195.797 149.958 226.362 163.259 246.019 171.814C253.261 174.965 259.022 177.473 261.355 178.441L251.871 186.557C258.559 216.709 265.07 246.899 271.402 277.127C268.027 281.088 264.965 285.382 261.923 289.649L261.923 289.649L261.923 289.649C260.987 290.961 260.054 292.271 259.113 293.568L259.12 332.368C249.638 340.471 239.594 348.042 229.56 355.607L229.559 355.607L229.559 355.607C222.972 360.574 216.389 365.536 209.971 370.645L193.015 370.715C188.415 370.714 183.816 370.654 179.218 370.534C175.499 367.468 171.532 364.611 167.581 361.766L167.58 361.765L167.579 361.764C165.598 360.338 163.62 358.914 161.68 357.468C150.797 349.358 139.965 341.179 129.185 332.933C129.174 330.41 129.096 327.275 129.012 323.85C128.76 313.65 128.444 300.88 129.617 294.082C126.347 289.933 123.192 285.685 120.04 281.441C118.983 280.018 117.927 278.596 116.866 277.178C121.617 252.623 127.397 228.141 133.157 203.742L133.157 203.742L133.158 203.741C134.517 197.982 135.876 192.228 137.219 186.48L126.443 178.371C134.866 174.745 143.323 171.188 151.781 167.631C165.661 161.793 179.544 155.955 193.278 149.809ZM245.073 313.813C246.078 314.966 245.826 320.465 245.674 323.792C245.636 324.622 245.604 325.316 245.599 325.775C242.372 328 239.262 330.498 236.167 332.984L236.167 332.984C234.685 334.174 233.207 335.361 231.721 336.515L204.867 357.178C200.111 357.276 195.345 357.257 190.582 357.237H190.582H190.58C188.391 357.228 186.202 357.219 184.014 357.222C175.754 350.511 167.068 344.154 158.443 337.842L158.442 337.841L158.432 337.834C156.667 336.543 154.904 335.253 153.148 333.962L142.902 326.123L142.604 313.543C145.642 317.711 149.104 321.648 152.538 325.553L152.539 325.554C153.662 326.831 154.782 328.104 155.883 329.381C181.706 329.602 207.529 329.619 233.352 329.432C237.192 324.175 241.099 318.969 245.073 313.813ZM237.878 183.744C232.208 180.979 196.542 164.402 193.159 164.327C179.201 170.436 165.29 176.653 151.428 182.977C149.885 192.702 147.506 202.424 145.136 212.103C143.963 216.898 142.791 221.683 141.726 226.453C140.549 231.72 139.463 237.043 138.375 242.375C136.286 252.614 134.19 262.886 131.435 272.861C135.313 279.386 139.888 285.572 144.424 291.707C145.525 293.196 146.624 294.681 147.71 296.168C149.451 298.553 151.17 300.959 152.89 303.365C155.94 307.634 158.991 311.904 162.171 316.063L187.291 315.942L187.26 279.575C178.687 274.121 170.421 268.038 162.186 261.977C158.709 259.417 155.236 256.862 151.749 254.359C150.405 249.06 148.983 243.783 147.481 238.527C148.303 237.839 149.137 237.156 149.973 236.471C152.468 234.428 154.981 232.369 157.249 230.113C165.075 235.176 172.864 240.298 180.615 245.477L180.658 257.833C181.539 258.513 182.53 259.343 183.589 260.231C187.037 263.12 191.209 266.616 194.667 267.491L196.01 266.825C196.881 266.177 197.751 265.522 198.622 264.866C201.698 262.549 204.786 260.223 208.025 258.16L208.118 245.225C209.977 244.002 211.855 242.789 213.737 241.574C219.463 237.877 225.225 234.156 230.603 230.043C234.385 232.804 238.081 235.578 241.649 238.616C241.106 240.246 240.575 241.884 240.044 243.525C238.861 247.179 237.675 250.841 236.347 254.427C224.37 262.657 212.537 271.088 200.847 279.719C200.781 291.926 200.865 304.133 201.099 316.338C202.439 316.321 203.78 316.302 205.122 316.283C212.143 316.184 219.171 316.084 226.189 316.323C236.337 301.916 246.583 287.579 256.927 273.312L243.688 211.74C243.087 208.915 242.423 206.063 241.756 203.197C240.252 196.731 238.731 190.195 237.878 183.744Z" fill="#fff"/>
</svg>
